<?xml version="1.0" encoding="UTF-8" standalone="no"?>
<svg
   xmlns:dc="http://purl.org/dc/elements/1.1/"
   xmlns:cc="http://creativecommons.org/ns#"
   xmlns:rdf="http://www.w3.org/1999/02/22-rdf-syntax-ns#"
   xmlns:svg="http://www.w3.org/2000/svg"
   xmlns="http://www.w3.org/2000/svg"
   width="512"
   height="512"
   viewBox="0 0 512.00001 512.00001"
   id="svg4164"
   version="1.1">
  <defs
     id="defs4166" />
  <metadata
     id="metadata4169">
    <rdf:RDF>
      <cc:Work
         rdf:about="">
        <dc:format>image/svg+xml</dc:format>
        <dc:type
           rdf:resource="http://purl.org/dc/dcmitype/StillImage" />
        <dc:title></dc:title>
      </cc:Work>
    </rdf:RDF>
  </metadata>
  <path
     id="path5044-1-7"
     d="M 74.471988,42.798852 C 110.18894,149.70993 105.84398,354.57097 46.247753,474.83721 c 36.44548,13.25239 51.310004,-9.8875 128.501357,-40.76602 78.37835,-3.06619 132.63181,-2.72197 195.64734,-77.19371 30.88064,-36.49423 95.056,-49.60574 96.81479,-57.05469 0,0 -59.78718,-13.21973 3.61765,-9.13198 11.03819,-15.61208 -21.7894,-12.19935 -56.42462,-55.84522 C 375.87387,186.29111 409.59975,164.11575 358.25435,120.9801 280.96359,66.137353 160.93595,55.773384 74.471988,42.798852 Z m 77.115132,58.452778 c 68.52411,19.66103 132.43577,38.7318 157.34641,97.33274 3.56912,2.70714 13.18097,73.34336 13.18097,73.34336 -50.64382,57.93722 -42.356,71.88656 -103.71572,110.66987 -15.63541,9.88261 -57.18587,32.9845 -80.876,24.00029 -0.27325,-0.10737 15.00474,-31.45311 15.83138,-33.33189 23.23639,-53.13545 17.17494,-196.70673 -1.76704,-272.01437 z M 365.46563,213.364 a 24.798456,19.901948 0 0 1 24.79761,19.89487 24.798456,19.901948 0 0 1 -24.79761,19.90577 24.798456,19.901948 0 0 1 -24.79767,-19.90577 24.798456,19.901948 0 0 1 24.79767,-19.89487 z"
     style="fill:#000000;fill-opacity:1;stroke:#000000;stroke-width:5.89300919;stroke-linecap:butt;stroke-linejoin:miter;stroke-miterlimit:4;stroke-dasharray:none;stroke-opacity:1" />
</svg>
